<svg width="116" height="48" viewBox="0 0 116 48" fill="none" xmlns="http://www.w3.org/2000/svg">
<path fill-rule="evenodd" clip-rule="evenodd" d="M57.2586 14.1219C60.3352 16.5028 63.2517 19.3334 63.2517 23.9995C63.2517 29.3197 59.4621 32.2515 55.9653 34.8534C55.6681 35.0744 55.3741 35.2933 55.0846 35.5099C52.4467 37.4869 50.1877 39.3704 50.1877 42.1084V47.0465L43.6557 44.989V14.123H57.2586V14.1219ZM51.8207 17.8267C51.014 17.8267 50.1877 18.5561 50.1877 19.5337V32.4639C50.9487 31.8422 51.7325 31.2587 52.5055 30.6838C53.1162 30.2299 53.7138 29.7846 54.2767 29.3404C54.3942 29.2555 54.5086 29.1641 54.6197 29.0661H54.6186C55.888 27.9513 56.7197 26.0984 56.7197 24.0005C56.7197 22.2423 56.1351 20.6583 55.1999 19.5337C54.3214 18.4766 53.1314 17.8267 51.8207 17.8267Z" fill="#A04CFF"/>
<path fill-rule="evenodd" clip-rule="evenodd" d="M19.5961 3.011V33.8769H5.99311C2.91654 31.496 1.93824e-05 28.6655 0 23.9995C0 18.6802 3.78963 15.7484 7.28643 13.1465C7.58363 12.9255 7.87757 12.7066 8.16715 12.49C10.805 10.513 13.064 8.6296 13.064 5.89161V0.953369L19.5961 3.011ZM13.0651 15.5361C12.3041 16.1577 11.5203 16.7412 10.7473 17.3161C10.1366 17.77 9.53893 18.2153 8.9761 18.6595C8.85853 18.7444 8.74417 18.8359 8.63313 18.9339C7.36375 20.0487 6.53202 21.9016 6.53202 23.9995C6.53203 25.7576 7.11665 27.3416 8.0518 28.4662C8.93036 29.5233 10.1203 30.1733 11.431 30.1733C12.2377 30.1733 13.064 29.4438 13.064 28.4662V19.8842H13.0651V15.5361Z" fill="#A04CFF"/>
<path fill-rule="evenodd" clip-rule="evenodd" d="M41.0973 33.8769H27.4943C24.4418 31.5146 21.5468 28.7097 21.5018 24.1084L21.5012 24.0005C21.5012 19.3334 24.4188 16.5039 27.4954 14.123H41.0973V33.8769ZM32.9323 17.8278C30.2269 17.8278 28.0332 20.5919 28.0332 24.0005C28.0333 27.4091 30.2269 30.1733 32.9323 30.1733C33.8337 30.1733 34.5653 29.2523 34.5653 28.1157V19.8842C34.5653 18.7477 33.8337 17.8267 32.9323 17.8267V17.8278Z" fill="#A04CFF"/>
<path d="M71.6943 5.89268C71.6943 5.98847 71.6976 6.08208 71.7031 6.17569C71.7041 6.20617 71.7075 6.2356 71.7096 6.26499C71.714 6.32922 71.7194 6.3924 71.727 6.45445C71.7302 6.48819 71.7357 6.52192 71.7401 6.55566C71.7477 6.61334 71.7575 6.67212 71.7673 6.7298C71.7738 6.76245 71.7792 6.79624 71.7858 6.82889C71.7977 6.88984 71.8119 6.95083 71.8261 7.01069C71.8326 7.039 71.8381 7.06736 71.8457 7.09457C71.8686 7.18055 71.8925 7.26654 71.9197 7.35143C71.9219 7.35796 71.924 7.36457 71.9262 7.3711C71.9512 7.44947 71.9785 7.52675 72.0079 7.60404C72.0187 7.63234 72.0308 7.66068 72.0417 7.68898C72.0634 7.7445 72.0863 7.79892 72.1102 7.85335C72.1233 7.88491 72.1385 7.91651 72.1527 7.94807C72.1766 7.99924 72.2017 8.05043 72.2268 8.10159C72.242 8.13206 72.2572 8.16362 72.2735 8.19409C72.3018 8.24743 72.3312 8.30085 72.3606 8.3542C72.3758 8.38032 72.39 8.4075 72.4053 8.43362C72.4499 8.51091 72.4967 8.58822 72.5457 8.66443C72.5544 8.67749 72.5642 8.69166 72.5729 8.70472C72.6143 8.76786 72.6567 8.83104 72.7003 8.89417C72.7199 8.92246 72.7405 8.95073 72.7612 8.97901C72.795 9.02692 72.8299 9.07488 72.8658 9.12169C72.8887 9.15324 72.9126 9.18372 72.9365 9.21418C72.9725 9.25991 73.0084 9.30457 73.0443 9.3492C73.0683 9.37859 73.0933 9.40909 73.1183 9.43957C73.1575 9.48638 73.1979 9.5332 73.2381 9.58002C73.261 9.60722 73.2838 9.63449 73.3078 9.6606C73.3698 9.73135 73.4341 9.80208 73.4994 9.87174C73.5179 9.89134 73.5375 9.91094 73.556 9.93054C73.605 9.98279 73.6551 10.035 73.7062 10.0862C73.7356 10.1167 73.7661 10.1461 73.7954 10.1755C73.8368 10.2168 73.8793 10.2582 73.9217 10.2996C73.9544 10.3311 73.9882 10.3627 74.0208 10.3943C74.0622 10.4346 74.1047 10.4737 74.1471 10.5129C74.1809 10.5445 74.2146 10.575 74.2484 10.6066C74.293 10.6469 74.3387 10.6883 74.3844 10.7285C74.4171 10.7579 74.4498 10.7862 74.4825 10.8156C74.5521 10.8766 74.6229 10.9387 74.6948 10.9996C74.7328 11.0323 74.771 11.0649 74.8101 11.0976C74.8569 11.1367 74.9037 11.177 74.9516 11.2162C74.993 11.25 75.0344 11.2838 75.0758 11.3175C75.1182 11.3513 75.1597 11.3861 75.2021 11.4198C75.2457 11.4546 75.2903 11.4906 75.3338 11.5255C75.3741 11.5581 75.4154 11.5897 75.4557 11.6223C75.5014 11.6593 75.5472 11.6963 75.594 11.7323C75.631 11.7617 75.668 11.7911 75.7061 11.8205C75.7562 11.8597 75.8063 11.8977 75.8564 11.9369C76.0044 12.0523 76.1557 12.1666 76.3081 12.282C76.3212 12.2918 76.3343 12.3017 76.3473 12.3115C76.4213 12.3681 76.4965 12.4236 76.5716 12.4802C76.5792 12.4867 76.5869 12.4922 76.5945 12.4976C76.7698 12.6293 76.9473 12.7611 77.1258 12.8939C77.239 12.9788 77.3522 13.0626 77.4665 13.1475C77.5514 13.2107 77.6374 13.2749 77.7234 13.3391C77.7397 13.3511 77.755 13.3631 77.7713 13.3751C77.8497 13.4338 77.9292 13.4926 78.0076 13.5514C78.0261 13.5656 78.0457 13.5809 78.0653 13.595C78.1437 13.6538 78.2221 13.7126 78.3005 13.7725C78.3157 13.7844 78.332 13.7964 78.3472 13.8084C78.4311 13.8704 78.5138 13.9347 78.5965 13.9978C78.6031 14.0022 78.6085 14.0076 78.615 14.012C79.1365 14.4126 79.6525 14.8274 80.1533 15.2596C80.4636 15.5274 80.7695 15.7995 81.0635 16.0826C81.0678 16.0858 81.0711 16.0891 81.0743 16.0924C81.156 16.1707 81.2365 16.2503 81.316 16.3298C81.3225 16.3363 81.3291 16.3428 81.3357 16.3493C81.414 16.4277 81.4903 16.5061 81.5665 16.5856C81.5741 16.5932 81.5828 16.6019 81.5904 16.6107C81.6655 16.689 81.7395 16.7685 81.8125 16.8479C81.8157 16.8512 81.822 16.8575 81.8223 16.8577H81.8277C83.5304 18.7172 84.7595 20.9719 84.7595 23.9995V33.8769H78.2275V23.9995C78.2275 22.4078 77.7496 20.9566 76.9635 19.8614H76.9613C76.7741 19.6012 76.5705 19.3606 76.3517 19.1429C76.3506 19.1418 76.3496 19.1406 76.3496 19.1406C76.2821 19.0742 76.2134 19.0111 76.1437 18.9491C76.0839 18.8968 76.0229 18.8446 75.9609 18.7945C75.9576 18.7934 75.9554 18.7912 75.9532 18.7891C75.8966 18.7444 75.84 18.7009 75.7823 18.6584C75.2205 18.2142 74.6228 17.77 74.0121 17.3161C73.2392 16.7412 72.4553 16.1567 71.6943 15.5361V33.8769H65.1623V3.011L71.6943 0.953369V5.89268Z" fill="#A04CFF"/>
<path d="M100.915 14.1219C103.993 16.5028 106.91 19.3323 106.91 23.9995V33.8769H100.378V23.9995C100.378 20.5909 98.1839 17.8267 95.4786 17.8267C94.5772 17.8267 93.8456 18.7477 93.8456 19.8842V33.8769H87.3136V14.123H100.915V14.1219Z" fill="#A04CFF"/>
<path d="M116 33.8769H109.468V14.2602H116V33.8769Z" fill="#A04CFF"/>
<path d="M116 12.2712C113.211 12.2712 109.468 9.42211 109.468 5.90788V3.011L116 0.953369V12.2712Z" fill="#A04CFF"/>
</svg>
